<svg version="1" xmlns="http://www.w3.org/2000/svg" width="682.667" height="682.667" viewBox="0 0 512.000000 512.000000"><path d="M189.5 117.5c-3.3 3.2-3.4 9.3-.2 12.2 1.2 1.1 47.4 30.4 102.6 65.2 67 42.1 101.3 63.1 103 63.1 5.9 0 10-5.8 8.1-11.5-1-3-11.3-9.7-102.9-67.4-79.4-50-102.5-64.1-105-64.1-2.1 0-4.1.9-5.6 2.5zM122.3 168.3C102.9 180.5 87 190.8 87 191.2c0 .6 83.2 52.6 85 53 1 .3 71-44.3 71-45.3 0-.8-83.3-52.9-84.5-52.9-.6 0-16.9 10.1-36.2 22.3zM52.2 209c-1.2.5-3 2.5-3.9 4.5-3.5 7.4-8.9 3.5 109 76.7C237 339.7 265.5 357 267.7 357c7 0 10.8-9.1 6-14.3-3.2-3.5-213.7-134-216.7-134.4-1.4-.1-3.5.2-4.8.7zM270.5 213.5c-3.3 3.2-3.4 8.5-.2 11.8 3.9 4.3 87.2 55.7 90.1 55.7 3.8 0 8.6-5 8.6-8.8 0-1.6-.8-3.9-1.7-5.1-1-1.1-21.1-14.2-44.8-29.1-46.4-29.1-47.1-29.5-52-24.5zM235 236.5c-3.3 3.5-3.2 8.8.1 11.9 2.1 2 80.5 51.3 86.6 54.5 5.9 3 12.3-.9 12.3-7.5 0-2.2-.7-4.6-1.7-5.7-1-1-21.2-14-45-28.8-46.8-29.2-47.5-29.5-52.3-24.4zM200.1 258.7c-1.2 1-2.4 3.4-2.7 5.4-.5 3-.2 4.1 2.2 6.7 4.4 4.7 88.1 56.2 91.4 56.2 3.5 0 7.6-3.2 8.4-6.6 1.6-6.2.8-6.8-46-35.8-47-29.2-48.4-29.9-53.3-25.9zM489.5 315.2c-1.1.6-34.8 21.8-74.8 47-57.8 36.4-73.5 45.8-76.1 45.8-2.2 0-6-1.7-11.5-5-4.5-2.8-8.6-5-9-5-1.5 0-4.3 12.3-4.8 20.5-.7 10 .8 15.5 4.8 18.9 3.4 2.9 6.8 3.2 12.6 1.2 5.6-2 148-91.8 152.6-96.2 5.5-5.4 9.9-14.5 10.5-22.1.5-6.7-.1-7.5-4.3-5.1z"/></svg>