<svg xmlns="http://www.w3.org/2000/svg" id="Layer_1" width="512" height="512">
  <style>
    .st3{fill:#8b7e7f}
  </style>
  <path fill="#c2b8b9" d="M483.9 307.8l-145.6 91.7 4.4-49c-21.5 13.5-39.1 45.4-39.1 70.9s17.6 35.1 39.1 21.6l141.1-88.9a46.7 46.7 0 0 0 19.6-35.4c0-12.8-8.8-17.7-19.5-10.9z"/>
  <path fill="#d6ced1" d="M194.9 105.1l-128 133.6 266.8 168 168.9-107.8z"/>
  <path fill="#ece7ea" d="M501.8 298.4c-6.5-3.6-14.7-2.8-22.5 2.2l-145.6 91.7a8.6 8.6 0 0 0 9.1 14.5l145.6-91.7c2.8-1.8 4.7-1.9 5.1-1.7.4.2 1.3 1.9 1.3 5.2 0 9.8-7.3 23-15.6 28.2l-141.1 88.9c-7.5 4.7-14.4 6-18.9 3.6-4.5-2.5-7.1-9-7.1-17.9a85.1 85.1 0 0 1 35.1-63.6L500 261.6a8.6 8.6 0 0 0 .1-14.4L210 64.5l-16.1-10.1L34.7 154.6A81.8 81.8 0 0 0 0 217.5c0 23 15.3 50.6 34.7 62.9l273.9 172.4 2.4 1.5c10.3 5.7 23.2 4.2 36.3-4.1l141.1-88.9a51 51 0 0 0 15-15.6 52.7 52.7 0 0 0 8.6-27.1c0-9.2-3.7-16.6-10.2-20.2z"/>
  <path d="M395 257.8c-1.6 0-3.1-.4-4.6-1.3L190.1 130.4a8.6 8.6 0 0 1 9.1-14.5L399.5 242a8.6 8.6 0 0 1-4.5 15.8zm-34.7 23c-1.6 0-3.1-.4-4.5-1.3l-84.6-53.1a8.6 8.6 0 0 1 9.1-14.5l84.6 53.1a8.6 8.6 0 0 1-4.6 15.8zm-34.6 23c-1.5 0-3.1-.4-4.5-1.3l-85.3-53.2a8.6 8.6 0 0 1 9.1-14.5l85.3 53.2a8.6 8.6 0 0 1-4.6 15.8z" class="st3"/>
  <path fill="#dc4c46" d="M243.3 198.9l-84.7-53.1-72 45.4 85.9 53.4z"/>
  <path d="M291 326.9c-1.5 0-3.1-.4-4.5-1.3l-85.9-53.4a8.6 8.6 0 0 1 9.1-14.5l85.9 53.4a8.6 8.6 0 0 1-4.6 15.8zm-23.5 30c-1.5 0-3.1-.4-4.5-1.3L50.9 223.8a8.6 8.6 0 0 1 9.1-14.5l212 131.8a8.6 8.6 0 0 1-4.5 15.8z" class="st3"/>
</svg>
