<?xml version="1.0" encoding="utf-8"?>
<!-- Generator: Adobe Illustrator 20.1.0, SVG Export Plug-In . SVG Version: 6.00 Build 0)  -->
<svg version="1.1" id="Layer_1" xmlns="http://www.w3.org/2000/svg" xmlns:xlink="http://www.w3.org/1999/xlink" x="0px" y="0px"
	 width="1200px" height="537px" viewBox="0 0 1200 537" style="enable-background:new 0 0 1200 537;" xml:space="preserve">
<style type="text/css">
	.st0{fill:#C2B8B9;}
	.st1{fill:#D6CED1;}
	.st2{fill:#ECE7EA;}
	.st3{fill:#8B7E7F;}
	.st4{fill:#DC4C46;}
</style>
<path class="st0" d="M827.9,320.3L682.3,412l4.4-49c-21.5,13.5-39.1,45.4-39.1,70.9s17.6,35.1,39.1,21.6l141.1-88.9
	c11.6-8.2,18.8-21.2,19.6-35.4C847.4,318.4,838.6,313.5,827.9,320.3L827.9,320.3z"/>
<path class="st1" d="M538.9,117.6l-128,133.6l266.8,168l168.9-107.8L538.9,117.6z"/>
<path class="st2" d="M844.8,310.6c-6.5-3.6-14.6-2.8-22.4,2.2l-145,90.9c-3.7,2.9-4.4,8.2-1.5,12c2.5,3.2,6.9,4.2,10.6,2.4l145-90.9
	c2.8-1.8,4.7-1.9,5.1-1.7c0.4,0.2,1.3,1.9,1.3,5.2c0,9.7-7.3,22.8-15.5,28l-140.5,88.2c-7.5,4.7-14.3,6-18.8,3.6
	c-4.5-2.5-7.1-8.9-7.1-17.8c1.6-25.2,14.4-48.3,35-63.1L843,274.1c4-2.5,5.1-7.8,2.6-11.8c-0.6-1-1.5-1.8-2.5-2.5l-289-181.2l-16-10
	l-158.6,99.4c-20.6,14.4-33.3,37.4-34.6,62.4c0,22.8,15.2,50.2,34.6,62.4l272.8,171l2.4,1.5c10.3,5.7,23.1,4.2,36.2-4.1l140.5-88.2
	c6-4,11.1-9.3,14.9-15.5c5.3-8,8.2-17.3,8.6-26.9C855,321.5,851.3,314.1,844.8,310.6L844.8,310.6z"/>
<path class="st3" d="M739,270.3c-1.6,0-3.1-0.4-4.6-1.3L534.1,142.9c-3.8-2.9-4.5-8.3-1.6-12.1c2.5-3.3,7-4.3,10.7-2.4l200.3,126.1
	c4,2.6,5.1,7.9,2.5,11.9C744.5,268.8,741.8,270.2,739,270.3z M704.3,293.3c-1.6,0-3.1-0.4-4.5-1.3l-84.6-53.1
	c-3.8-2.9-4.5-8.3-1.6-12.1c2.5-3.3,7-4.3,10.7-2.4l84.6,53.1c4,2.6,5.1,7.9,2.5,11.9C709.8,291.8,707.2,293.3,704.3,293.3z
	 M669.7,316.3c-1.5,0-3.1-0.4-4.5-1.3l-85.3-53.2c-3.8-2.9-4.5-8.3-1.6-12.1c2.5-3.3,7-4.3,10.7-2.4l85.3,53.2
	c4,2.6,5.1,7.9,2.5,11.9C675.2,314.8,672.6,316.3,669.7,316.3z"/>
<path class="st4" d="M587.3,211.4l-84.7-53.1l-72,45.4l85.9,53.4L587.3,211.4z"/>
<path class="st3" d="M635,339.4c-1.5,0-3.1-0.4-4.5-1.3l-85.9-53.4c-3.8-2.9-4.5-8.3-1.6-12.1c2.5-3.3,7-4.3,10.7-2.4l85.9,53.4
	c4,2.6,5.1,7.9,2.5,11.9C640.5,337.9,637.9,339.4,635,339.4z M611.5,369.4c-1.5,0-3.1-0.4-4.5-1.3L394.9,236.3
	c-3.8-2.9-4.5-8.3-1.6-12.1c2.5-3.3,7-4.3,10.7-2.4l212,131.8c4,2.6,5.1,7.9,2.5,11.9C617,367.9,614.3,369.3,611.5,369.4z"/>
</svg>
